<?xml version="1.0" standalone="no"?>
<!DOCTYPE svg PUBLIC "-//W3C//DTD SVG 20010904//EN"
 "http://www.w3.org/TR/2001/REC-SVG-20010904/DTD/svg10.dtd">
<svg version="1.0" xmlns="http://www.w3.org/2000/svg"
 width="460.000000pt" height="460.000000pt" viewBox="0 0 460.000000 460.000000"
 preserveAspectRatio="xMidYMid meet">
<metadata>
Created by potrace 1.14, written by Peter Selinger 2001-2017
</metadata>
<g transform="translate(0.000000,460.000000) scale(0.100000,-0.100000)"
fill="#000000" stroke="none">
<path d="M2395 4093 c5 -11 -6 -16 -32 -12 -3 0 -10 -6 -15 -15 -5 -9 -13 -14
-18 -11 -4 3 -10 -2 -14 -10 -3 -8 -12 -12 -19 -9 -8 3 -17 -2 -20 -10 -4 -9
-13 -13 -22 -10 -8 4 -15 1 -15 -6 0 -7 -6 -10 -14 -7 -8 3 -16 2 -18 -4 -2
-5 -14 -11 -28 -14 -14 -3 -26 -8 -28 -13 -1 -4 -16 -7 -32 -6 -17 1 -30 -2
-30 -7 0 -5 -13 -9 -28 -9 -15 0 -34 -6 -41 -12 -11 -11 -12 -10 -6 2 7 12 6
13 -6 3 -8 -7 -47 -13 -87 -14 -39 -1 -69 -5 -67 -10 6 -9 -16 -6 -34 5 -9 6
-12 5 -8 -1 4 -7 -8 -11 -33 -11 -29 -1 -38 3 -33 11 4 7 0 6 -10 -2 -14 -11
-20 -11 -32 -1 -9 7 -44 12 -85 12 -38 0 -70 4 -70 9 0 5 -15 9 -32 8 -18 -2
-43 3 -56 10 -13 7 -30 10 -38 7 -8 -3 -14 -1 -14 5 0 6 -4 7 -10 4 -5 -3 -10
-2 -10 4 0 5 -9 8 -20 6 -11 -2 -27 3 -35 11 -13 14 -18 12 -45 -14 -17 -17
-30 -28 -30 -25 0 3 -6 0 -13 -6 -8 -6 -17 -7 -21 -3 -4 4 -6 2 -4 -4 2 -7 -9
-23 -24 -37 -16 -14 -28 -21 -28 -16 0 6 -7 4 -15 -5 -8 -8 -15 -19 -15 -24 0
-5 -12 -14 -27 -21 -16 -7 -28 -11 -28 -10 0 2 -16 -13 -36 -34 -20 -20 -38
-34 -41 -31 -3 3 -15 -6 -26 -20 -11 -15 -24 -26 -30 -26 -5 0 -15 -7 -22 -15
-7 -8 -16 -12 -21 -9 -5 3 -9 -1 -9 -9 0 -8 -7 -17 -15 -21 -12 -4 -13 -10 -3
-31 6 -14 17 -25 25 -25 7 0 13 -4 13 -8 0 -15 37 -52 44 -45 3 3 6 0 6 -7 0
-7 8 -19 18 -27 10 -9 11 -12 2 -7 -8 4 2 -8 22 -27 21 -19 38 -40 38 -47 0
-8 5 -10 12 -6 7 5 8 3 3 -6 -4 -7 -2 -16 6 -21 8 -4 14 -12 14 -16 1 -4 6
-18 13 -30 7 -13 10 -23 7 -23 -3 0 0 -10 7 -22 7 -13 11 -26 10 -30 -1 -5 3
-8 10 -8 6 0 8 -3 5 -6 -3 -4 -2 -15 4 -25 7 -13 6 -19 -1 -19 -7 0 -7 -8 2
-22 7 -13 13 -50 13 -84 1 -33 5 -66 10 -74 6 -9 4 -11 -6 -5 -12 7 -12 6 -1
-7 10 -13 10 -17 0 -21 -11 -4 -11 -6 0 -6 8 -1 10 -7 5 -18 -5 -10 -8 -45 -8
-78 0 -42 -4 -64 -15 -72 -10 -8 -11 -12 -3 -13 9 0 10 -7 3 -26 -6 -14 -8
-30 -4 -35 3 -5 1 -9 -4 -9 -5 0 -8 -19 -8 -42 1 -24 -3 -49 -9 -57 -13 -18
-15 -282 -2 -298 5 -7 6 -13 2 -13 -4 0 -2 -7 5 -15 9 -11 9 -15 1 -15 -8 0
-9 -6 -3 -17 5 -10 8 -26 7 -35 -2 -10 1 -18 7 -18 6 0 8 -12 5 -27 -3 -16 1
-32 9 -41 8 -7 12 -18 9 -23 -4 -5 -2 -9 4 -9 6 0 7 -7 4 -17 -4 -11 -3 -14 5
-9 8 5 10 2 6 -9 -4 -9 1 -23 9 -33 9 -9 16 -21 17 -27 2 -17 34 -80 43 -86 5
-3 8 -9 8 -13 -3 -19 0 -29 6 -23 9 10 34 -43 26 -56 -3 -5 -1 -7 5 -3 6 3 23
-10 38 -31 45 -61 143 -163 157 -163 4 0 7 -7 7 -16 0 -13 3 -14 13 -5 11 8
16 5 25 -15 7 -14 16 -23 20 -20 5 3 14 -4 22 -14 8 -10 17 -17 21 -15 4 3 12
-2 19 -10 7 -8 19 -15 27 -15 8 0 11 -5 7 -12 -4 -7 -4 -10 1 -6 4 4 26 -3 49
-16 22 -12 46 -25 51 -27 6 -2 9 -7 8 -11 -2 -4 6 -5 17 -3 11 2 20 -1 20 -6
0 -6 4 -8 9 -4 5 3 12 1 16 -5 4 -6 10 -8 15 -5 5 3 15 -2 24 -10 10 -10 17
-12 21 -4 5 7 12 6 23 -3 10 -8 24 -14 32 -13 8 0 18 -3 21 -7 3 -4 17 -9 32
-10 15 -1 27 -8 27 -14 0 -6 11 -10 25 -9 14 2 25 -1 25 -6 0 -5 7 -9 15 -9 8
0 24 -10 36 -22 12 -13 19 -17 15 -10 -4 6 -2 12 3 12 6 0 11 -5 11 -10 0 -6
11 -15 25 -22 13 -6 22 -16 18 -21 -4 -6 0 -8 10 -4 11 4 17 1 17 -7 0 -7 10
-18 23 -24 12 -6 16 -11 9 -11 -8 -1 5 -18 27 -39 33 -31 39 -41 28 -52 -9
-10 -9 -12 1 -6 7 4 12 1 12 -7 0 -11 -16 -14 -72 -13 -40 1 -82 6 -93 12 -11
5 -29 9 -40 9 -11 -1 -26 3 -32 8 -7 5 -19 7 -28 4 -8 -4 -20 0 -27 7 -7 7
-23 12 -35 11 -12 -1 -24 4 -27 11 -3 7 -14 11 -25 9 -11 -2 -22 3 -25 11 -3
7 -12 11 -19 8 -8 -3 -17 2 -21 11 -3 9 -11 13 -17 10 -5 -4 -17 1 -24 11 -11
15 -14 16 -15 4 -1 -13 -2 -13 -13 1 -7 9 -22 19 -35 23 -12 4 -22 12 -22 17
0 5 -5 9 -10 9 -13 0 -69 38 -91 63 -9 9 -21 17 -27 17 -6 0 -46 35 -90 78
-67 67 -125 112 -108 84 5 -9 -28 -42 -42 -42 -5 0 -18 11 -30 25 -12 14 -19
25 -16 25 3 0 -9 15 -25 33 -17 17 -31 38 -31 45 0 6 -4 12 -10 12 -5 0 -10 5
-10 10 0 6 -9 19 -19 29 -17 17 -20 17 -34 3 -13 -12 -19 -13 -31 -3 -12 10
-13 18 -5 33 6 11 7 18 2 15 -4 -3 -14 1 -21 9 -8 9 -9 14 -2 14 6 0 4 12 -5
30 -9 17 -13 30 -9 30 4 0 1 7 -6 15 -7 8 -9 15 -5 15 4 0 2 7 -5 15 -6 8 -9
19 -6 24 4 5 2 12 -4 16 -5 3 -10 17 -10 31 0 14 -7 27 -16 31 -8 3 -13 11
-10 19 5 13 -8 62 -29 104 -7 14 -10 30 -8 37 2 6 -1 14 -6 18 -6 3 -11 17
-11 30 0 13 -4 27 -10 30 -5 3 -10 16 -11 28 -1 20 -2 19 -12 -5 -6 -16 -15
-28 -20 -28 -4 0 -6 -4 -3 -9 4 -5 1 -22 -6 -38 -6 -15 -10 -32 -9 -37 1 -5
-6 -17 -15 -27 -9 -11 -12 -19 -6 -19 5 0 8 -9 5 -20 -3 -11 -10 -20 -15 -20
-5 0 -8 -6 -5 -12 2 -7 -2 -25 -10 -40 -7 -16 -11 -28 -7 -28 4 0 0 -8 -7 -17
-12 -14 -12 -16 1 -9 13 6 13 6 0 -6 -9 -7 -15 -20 -15 -28 1 -8 -2 -19 -6
-25 -4 -5 -9 -21 -11 -35 -1 -14 -6 -28 -10 -31 -5 -3 -9 -17 -10 -32 -1 -15
-6 -27 -11 -27 -5 0 -7 -6 -4 -13 3 -8 -3 -14 -14 -14 -10 -1 -19 2 -19 8 0 5
-9 9 -20 9 -11 0 -20 5 -20 10 0 6 -11 10 -25 10 -14 0 -25 5 -25 10 0 6 -9
10 -20 10 -11 0 -20 5 -20 10 0 6 -9 10 -19 10 -11 0 -23 5 -26 10 -4 6 -11 8
-16 5 -5 -4 -12 0 -15 9 -3 8 -12 12 -20 9 -7 -3 -17 2 -20 11 -5 13 -9 14
-20 5 -11 -9 -15 -7 -20 5 -4 10 -13 15 -20 12 -8 -3 -14 -1 -14 3 0 5 -6 11
-14 14 -14 6 -16 -16 -3 -29 4 -4 7 -16 7 -26 0 -12 4 -16 12 -12 8 5 9 2 5
-9 -3 -9 1 -23 9 -32 9 -9 13 -22 10 -30 -3 -8 0 -14 7 -12 7 1 11 -4 9 -12
-1 -7 4 -24 13 -37 8 -13 12 -24 8 -24 -5 0 -2 -4 5 -9 7 -4 14 -18 15 -29 1
-12 5 -22 10 -22 4 0 5 -4 2 -10 -3 -5 -1 -10 5 -10 6 0 8 -5 5 -10 -3 -5 -2
-10 4 -10 5 0 8 -9 6 -20 -2 -11 0 -18 6 -15 8 6 13 -8 10 -27 0 -5 3 -8 9 -8
5 0 10 -11 10 -25 0 -14 5 -25 10 -25 6 0 10 -9 10 -20 0 -11 5 -20 11 -20 5
0 8 -4 4 -9 -3 -5 1 -15 8 -23 8 -7 13 -23 12 -35 -1 -13 3 -19 10 -16 8 2 12
-6 12 -23 0 -14 4 -29 9 -33 14 -10 37 -54 25 -46 -6 3 0 -14 13 -38 14 -24
22 -47 19 -51 -4 -3 -1 -6 6 -6 7 0 9 -4 6 -10 -3 -5 -1 -10 5 -10 6 0 9 -4 5
-9 -3 -5 1 -16 9 -24 8 -8 13 -17 10 -20 -3 -3 2 -16 11 -30 8 -13 18 -35 20
-48 3 -13 9 -25 15 -27 5 -2 10 -11 10 -21 0 -9 6 -23 12 -30 11 -11 10 -12
-2 -6 -12 7 -13 6 -3 -7 7 -8 9 -19 5 -23 -4 -5 1 -5 10 -2 12 4 16 1 13 -13
-2 -10 3 -21 11 -24 7 -3 11 -11 8 -19 -2 -7 5 -22 17 -33 l22 -19 -7 29 c-6
24 -4 27 9 22 9 -3 13 -2 10 4 -3 6 -2 10 4 10 7 0 7 8 1 26 -7 16 -7 23 0 19
6 -3 10 2 10 12 0 29 20 44 42 32 10 -5 18 -17 18 -25 0 -8 4 -13 9 -10 5 3
11 -1 15 -9 3 -8 12 -15 21 -15 13 0 17 -11 14 -36 -1 -8 42 -44 53 -44 5 0 6
-5 3 -10 -3 -6 -1 -10 4 -10 6 0 13 0 16 0 2 -1 29 -24 59 -51 30 -28 57 -50
61 -49 4 1 20 -13 35 -30 23 -26 32 -30 47 -22 10 6 17 14 16 19 0 4 3 7 8 6
4 -2 6 4 3 12 -4 9 0 15 10 15 9 0 16 7 16 15 0 8 5 15 12 15 6 0 8 3 5 7 -8
7 23 32 41 33 6 0 12 -8 12 -17 0 -15 2 -16 10 -3 5 8 10 10 10 4 0 -6 12 -17
28 -24 33 -17 32 -16 60 -25 12 -4 22 -11 22 -16 0 -5 11 -9 25 -9 14 0 25 -4
25 -10 0 -5 11 -10 25 -10 14 0 25 -4 25 -10 0 -5 11 -10 25 -10 14 0 25 -5
25 -11 0 -6 6 -9 14 -6 7 3 19 0 26 -6 10 -9 11 -9 6 3 -4 8 -1 7 8 -4 8 -10
19 -15 25 -12 5 3 15 1 23 -6 7 -7 28 -13 46 -13 18 1 37 -4 42 -10 5 -6 27
-10 49 -9 22 1 38 -2 36 -6 -3 -5 18 -10 45 -12 28 -1 50 1 50 5 0 5 6 5 13 0
6 -4 15 -8 20 -9 4 -1 8 -3 10 -4 4 -5 292 -7 304 -3 7 3 10 9 7 14 -3 5 6 5
20 -1 14 -5 26 -6 26 -2 0 4 18 7 40 5 24 -1 40 3 40 9 0 6 3 8 7 5 3 -4 12
-2 20 4 7 6 13 7 13 2 0 -5 13 -8 30 -5 16 2 28 8 25 12 -3 5 11 7 30 6 22 -2
35 1 35 8 0 7 13 11 30 10 17 -1 30 2 30 7 0 5 11 9 24 9 14 0 28 4 31 10 3 5
17 10 31 10 13 0 24 5 24 10 0 6 9 10 20 10 11 0 36 9 55 20 20 11 40 18 45
15 4 -3 11 2 14 10 3 8 9 15 13 14 16 -2 53 14 53 23 0 6 7 8 15 4 9 -3 15 0
15 9 0 9 6 12 15 9 8 -4 17 1 21 9 3 8 13 14 22 12 9 -2 20 -4 25 -4 4 -1 7
-7 7 -14 0 -7 16 -30 35 -51 19 -21 32 -42 29 -47 -3 -5 9 -1 25 9 17 9 31 24
31 32 0 12 2 12 9 2 7 -11 9 -11 14 2 4 9 14 16 22 16 9 0 14 3 12 8 -6 9 19
33 26 26 3 -3 8 4 12 16 4 13 12 19 21 16 13 -5 19 6 15 27 -1 5 4 5 10 2 11
-7 119 100 119 117 0 5 5 6 12 2 6 -4 8 -3 5 3 -4 6 3 19 14 28 17 16 21 17
34 4 8 -8 16 -23 18 -34 9 -45 20 -75 28 -75 5 0 9 7 9 15 0 8 5 15 10 15 6 0
10 9 10 20 0 11 5 20 11 20 6 0 9 6 6 14 -3 8 1 20 8 26 8 7 13 16 10 20 -3 5
1 14 8 22 7 7 14 17 14 21 3 23 38 107 45 107 4 0 8 9 8 20 0 11 5 20 10 20 6
0 9 3 9 8 -3 18 2 33 10 28 4 -3 7 6 5 19 -1 14 2 25 7 25 6 0 8 4 4 9 -3 5 2
17 11 25 9 9 14 23 11 30 -3 8 1 17 9 20 8 3 13 9 12 13 0 4 4 21 10 36 7 16
12 33 12 38 0 6 5 7 12 3 7 -5 9 -2 5 9 -3 8 0 21 8 27 7 6 10 20 7 32 -3 13
-1 19 5 15 6 -4 13 0 17 8 3 8 0 15 -7 15 -7 0 -4 5 5 10 9 6 19 24 23 40 4
17 12 30 18 30 7 0 6 4 -3 10 -13 8 -12 10 3 10 10 0 16 4 13 9 -7 10 16 61
27 61 5 0 6 4 2 9 -3 5 -1 12 5 16 6 4 8 11 5 16 -4 5 -1 9 4 9 6 0 10 3 10 8
-4 21 2 42 10 38 5 -4 8 2 7 11 -2 10 2 21 8 25 6 4 11 15 11 25 0 10 5 17 11
16 7 -1 10 6 6 19 -3 13 1 24 11 30 9 4 14 15 11 23 -4 8 -1 15 5 15 6 0 11 5
11 10 0 7 -7 7 -20 0 -11 -6 -24 -9 -29 -6 -5 3 -14 -1 -21 -9 -7 -8 -16 -13
-20 -10 -4 3 -13 -2 -20 -10 -7 -8 -16 -13 -20 -10 -4 3 -13 -2 -20 -10 -7 -8
-16 -12 -21 -9 -5 3 -9 0 -9 -6 0 -6 -8 -10 -17 -8 -10 2 -17 -2 -16 -7 1 -6
-8 -12 -20 -12 -12 -1 -23 -7 -25 -12 -2 -5 -9 -8 -16 -5 -8 3 -16 -2 -19 -10
-4 -9 -13 -13 -22 -10 -8 3 -15 1 -15 -5 0 -6 -7 -11 -15 -11 -8 0 -15 -4 -15
-8 0 -4 -14 -9 -32 -10 -18 -2 -29 0 -25 4 3 4 2 15 -3 25 -6 11 -6 20 -1 24
10 6 4 56 -7 65 -4 3 -7 41 -7 85 0 44 -3 86 -8 93 -6 7 -9 38 -9 70 0 67 -6
105 -16 98 -4 -2 -6 11 -4 30 2 19 1 34 -2 34 -6 0 -48 -84 -51 -100 0 -3 -6
-15 -13 -27 -7 -13 -9 -23 -5 -23 4 0 2 -4 -5 -9 -7 -4 -14 -17 -15 -29 0 -11
-4 -19 -7 -17 -3 2 -10 -8 -17 -21 -8 -18 -8 -22 0 -17 8 4 8 2 0 -9 -7 -8
-10 -18 -6 -21 3 -4 -1 -7 -11 -7 -9 0 -15 -4 -12 -9 4 -5 0 -12 -6 -14 -10
-4 -9 -6 1 -6 11 -1 10 -6 -4 -21 -10 -11 -15 -20 -11 -20 4 0 -2 -13 -13 -29
-12 -16 -21 -39 -21 -50 0 -12 -4 -21 -10 -21 -5 0 -10 -9 -10 -20 0 -11 -5
-20 -11 -20 -6 0 -9 -7 -5 -15 3 -8 1 -15 -4 -15 -6 0 -10 -7 -10 -15 0 -8 -5
-15 -11 -15 -5 0 -7 -4 -4 -10 3 -5 2 -10 -4 -10 -5 0 -11 6 -14 13 -3 8 -16
0 -35 -20 -17 -18 -28 -33 -25 -33 3 0 -5 -9 -18 -20 -13 -10 -20 -19 -15 -20
5 0 -3 -11 -18 -25 -15 -14 -24 -25 -19 -25 4 0 -1 -6 -12 -14 -20 -13 -54
-18 -53 -7 1 16 -4 28 -22 51 -11 14 -19 19 -18 11 2 -8 -6 -19 -18 -25 -11
-6 -19 -17 -16 -25 3 -8 0 -11 -7 -7 -6 4 -14 -1 -18 -11 -3 -10 -16 -27 -28
-38 -11 -11 -14 -16 -5 -11 8 5 0 -5 -18 -22 -18 -18 -36 -32 -40 -32 -12 0
-41 -38 -35 -44 4 -3 -1 -6 -10 -6 -9 0 -17 -5 -17 -11 0 -5 -4 -7 -10 -4 -5
3 -10 -1 -10 -10 0 -9 -4 -13 -10 -10 -5 3 -10 1 -10 -5 0 -6 -4 -9 -9 -6 -5
3 -11 -1 -15 -9 -3 -8 -13 -15 -21 -15 -9 0 -14 -4 -11 -8 2 -4 -5 -14 -17
-22 -19 -11 -21 -11 -12 1 6 8 3 7 -6 -3 -9 -9 -19 -14 -23 -11 -3 4 -6 1 -6
-6 0 -7 -4 -9 -10 -6 -5 3 -10 1 -10 -5 0 -6 -4 -8 -10 -5 -5 3 -10 1 -10 -4
0 -6 -9 -11 -20 -11 -10 0 -24 -8 -29 -17 -6 -10 -11 -14 -11 -9 0 5 -8 2 -17
-5 -14 -12 -15 -12 -9 0 6 9 1 8 -17 -3 -14 -10 -38 -19 -53 -22 -16 -3 -32
-11 -37 -17 -6 -9 -10 -9 -14 1 -4 10 -8 9 -19 -5 -9 -12 -13 -14 -14 -5 0 10
-4 9 -16 -3 -14 -13 -19 -14 -25 -3 -7 11 -9 11 -9 -1 0 -9 -8 -12 -25 -9 -14
3 -25 1 -25 -4 0 -5 -9 -4 -21 2 -11 7 -23 9 -27 6 -3 -3 0 -6 6 -6 7 0 12 -5
12 -11 0 -8 -5 -7 -16 2 -15 12 -14 15 8 34 13 12 22 27 20 34 -3 8 0 11 7 7
6 -4 11 -3 11 2 0 15 76 92 84 85 3 -3 6 -1 6 6 0 8 6 11 16 7 9 -3 12 -2 9 5
-4 6 2 13 14 16 12 3 21 10 21 15 0 6 7 8 15 4 8 -3 15 -1 15 4 0 6 9 10 19
10 11 0 21 4 23 10 2 8 29 16 61 19 5 1 6 4 4 9 -3 4 5 8 16 8 35 2 68 12 85
26 12 10 14 10 8 1 -5 -9 -2 -11 8 -7 9 3 16 10 16 14 0 5 9 7 20 5 11 -2 20
1 20 6 0 6 5 7 10 4 6 -3 10 -1 10 4 0 6 9 11 19 11 11 0 26 7 35 15 8 9 18
16 21 15 20 -1 25 1 21 9 -4 5 5 8 19 6 14 -1 24 0 21 2 -7 7 18 32 27 26 4
-2 7 0 7 5 0 5 15 17 34 27 19 11 33 22 30 27 -3 4 2 5 10 2 15 -6 21 6 17 29
-1 5 2 6 7 3 11 -6 43 30 34 39 -4 4 -2 6 3 5 21 -5 35 1 35 13 0 8 15 26 34
42 19 16 32 33 29 38 -3 6 -2 7 4 4 10 -6 49 33 45 46 -1 4 3 7 10 7 6 0 8 3
5 7 -4 3 2 12 13 20 12 8 17 20 13 30 -4 10 -2 14 4 10 6 -4 18 9 27 28 9 19
21 35 27 35 6 0 8 4 5 9 -6 10 16 61 27 61 4 0 7 11 7 25 0 14 5 25 11 25 5 0
8 3 6 8 -3 4 0 18 6 32 5 14 12 36 14 50 2 13 8 27 11 30 4 3 7 16 6 30 -1 14
4 38 12 55 10 19 11 31 4 33 -6 2 -7 10 0 22 7 13 6 20 -3 23 -6 3 -7 6 -2 6
8 1 10 169 4 246 -1 6 2 19 7 29 5 13 4 17 -3 13 -13 -8 -22 21 -18 62 1 17
-2 31 -7 31 -5 0 -6 5 -3 10 3 6 2 10 -3 10 -5 0 -8 15 -7 33 1 17 -2 38 -8
45 -14 18 -15 264 -1 278 5 6 10 30 9 52 -1 27 4 43 13 47 7 3 11 9 8 14 -7
11 14 74 26 82 6 3 9 9 9 13 -2 10 30 68 45 84 8 7 11 19 7 25 -3 7 -3 9 2 5
9 -9 35 16 35 33 0 7 3 10 6 6 9 -9 75 66 70 80 -3 7 1 10 10 6 9 -3 14 1 14
12 0 9 3 14 8 12 4 -3 12 1 18 7 8 9 3 19 -24 42 -19 16 -43 37 -53 47 -11 9
-19 14 -19 10 0 -3 -8 4 -19 15 -10 12 -21 22 -25 22 -3 0 -20 12 -37 28 -17
15 -36 26 -41 24 -5 -1 -7 2 -3 7 3 6 -4 15 -15 21 -11 6 -20 8 -20 4 0 -3
-13 8 -29 25 -16 17 -34 31 -40 31 -6 0 -11 5 -11 10 0 6 -7 10 -15 10 -8 0
-15 6 -15 14 0 7 -14 19 -30 26 -17 7 -34 19 -39 27 -7 13 -10 13 -23 -1 -9
-8 -25 -13 -37 -11 -12 2 -21 0 -21 -4 0 -7 -15 -11 -53 -12 -10 0 -20 -6 -23
-12 -2 -7 -21 -12 -42 -11 -20 0 -44 -3 -52 -7 -9 -4 -45 -9 -80 -10 -36 -1
-68 -7 -72 -13 -5 -7 -8 -7 -8 2 0 9 -5 10 -19 3 -19 -11 -112 -10 -105 0 2 3
-26 7 -63 8 -36 1 -71 5 -76 8 -5 3 -28 8 -51 11 -23 2 -43 8 -46 12 -3 4 -13
8 -22 8 -42 4 -48 6 -48 13 0 5 -7 6 -15 3 -8 -3 -17 0 -20 8 -3 8 -15 15 -28
15 -12 1 -23 7 -25 12 -2 5 -10 7 -18 4 -8 -3 -14 -1 -14 4 0 5 -16 15 -35 23
-19 8 -35 18 -35 24 0 5 -3 6 -7 3 -3 -4 -12 1 -20 11 -8 9 -12 11 -8 5z"/>
</g>
</svg>
