<svg width="24" height="24" viewBox="0 0 24 24" fill="none" xmlns="http://www.w3.org/2000/svg">
<path d="M12 2.92969L11.7188 3.04669L2.71875 6.79669L2.25 7.00894V9.00019H3.75V17.2502H2.25V21.0002H21.75V17.2502H20.25V9.00019H21.75V7.00819L21.2812 6.79819L12.2812 3.04669L12 2.92969ZM12 4.57069L19.0312 7.50019H4.96875L12 4.57069ZM5.25 9.00019H6.75V17.2502H5.25V9.00019ZM8.25 9.00019H9.75V17.2502H8.25V9.00019ZM11.25 9.00019H12.75V17.2502H11.25V9.00019ZM14.25 9.00019H15.75V17.2502H14.25V9.00019ZM17.25 9.00019H18.75V17.2502H17.25V9.00019ZM3.75 18.7502H20.25V19.5002H3.75V18.7502Z" fill="#FF69B4"/>
</svg>
