<svg width="24" height="24" viewBox="0 0 24 24" fill="none" xmlns="http://www.w3.org/2000/svg">
<path fill-rule="evenodd" clip-rule="evenodd" d="M9 1.5C8.30381 1.5 7.63613 1.77656 7.14384 2.26884C6.65156 2.76113 6.375 3.42881 6.375 4.125V6H4.5C3.70435 6 2.94129 6.31607 2.37868 6.87868C1.81607 7.44129 1.5 8.20435 1.5 9V19.5C1.5 20.2956 1.81607 21.0587 2.37868 21.6213C2.94129 22.1839 3.70435 22.5 4.5 22.5H19.5C20.2956 22.5 21.0587 22.1839 21.6213 21.6213C22.1839 21.0587 22.5 20.2956 22.5 19.5V9C22.5 8.20435 22.1839 7.44129 21.6213 6.87868C21.0587 6.31607 20.2956 6 19.5 6H17.625V4.125C17.625 3.42881 17.3484 2.76113 16.8562 2.26884C16.3639 1.77656 15.6962 1.5 15 1.5H9ZM15.375 6V4.125C15.375 4.02554 15.3355 3.93016 15.2652 3.85984C15.1948 3.78951 15.0995 3.75 15 3.75H9C8.90054 3.75 8.80516 3.78951 8.73483 3.85984C8.66451 3.93016 8.625 4.02554 8.625 4.125V6H15.375ZM4.5 8.25H19.5C19.6989 8.25 19.8897 8.32902 20.0303 8.46967C20.171 8.61032 20.25 8.80109 20.25 9V10.5H3.75V9C3.75 8.80109 3.82902 8.61032 3.96967 8.46967C4.11032 8.32902 4.30109 8.25 4.5 8.25ZM3.75 12.75V19.5C3.75 19.6989 3.82902 19.8897 3.96967 20.0303C4.11032 20.171 4.30109 20.25 4.5 20.25H19.5C19.6989 20.25 19.8897 20.171 20.0303 20.0303C20.171 19.8897 20.25 19.6989 20.25 19.5V12.75H13.5V15H10.5V12.75H3.75Z" fill="#FF7F50"/>
</svg>
