<svg width="24" height="24" viewBox="0 0 24 24" fill="none" xmlns="http://www.w3.org/2000/svg">
<path d="M12.28 19.229C12.984 19.181 13.6787 19.069 14.364 18.893C15.2073 19.1457 16.0972 19.2032 16.966 19.061C17.0005 19.0565 17.0352 19.0538 17.07 19.053C17.38 19.053 17.787 19.231 18.38 19.606V18.99C18.3801 18.8827 18.4091 18.7773 18.4638 18.685C18.5185 18.5927 18.5969 18.5167 18.691 18.465C18.9447 18.3235 19.1847 18.1588 19.408 17.973C20.272 17.25 20.76 16.287 20.76 15.267C20.76 14.929 20.706 14.594 20.601 14.274C20.861 13.794 21.073 13.288 21.228 12.764C21.728 13.504 21.998 14.374 22 15.267C22 16.653 21.346 17.947 20.215 18.892C20.0258 19.0494 19.8271 19.195 19.62 19.328V20.77C19.62 21.266 19.04 21.55 18.631 21.256C18.2441 20.9702 17.8436 20.7032 17.431 20.456C17.3124 20.3863 17.1891 20.3248 17.062 20.272C16.722 20.322 16.376 20.3473 16.024 20.348C14.612 20.348 13.307 19.93 12.28 19.229ZM4.814 16.345C3.03 14.854 2 12.818 2 10.64C2 6.18598 6.258 2.62598 11.457 2.62598C16.656 2.62598 20.915 6.18598 20.915 10.639C20.915 15.094 16.656 18.653 11.457 18.653C10.8723 18.653 10.2963 18.6086 9.729 18.52C9.484 18.577 8.505 19.151 7.094 20.168C6.584 20.537 5.858 20.181 5.858 19.56V17.1C5.49244 16.8739 5.14355 16.6219 4.814 16.346M9.764 17.004C9.806 17.004 9.84933 17.0073 9.894 17.014C10.4106 17.0996 10.9334 17.1425 11.457 17.142C15.849 17.142 19.364 14.203 19.364 10.64C19.364 7.07698 15.849 4.13898 11.457 4.13898C7.067 4.13898 3.55 7.07798 3.55 10.64C3.55 12.363 4.371 13.985 5.823 15.199C6.18967 15.5043 6.58833 15.778 7.019 16.02C7.26 16.154 7.409 16.405 7.409 16.675V18.094C8.525 17.354 9.259 17.004 9.763 17.004" fill="url(#paint0_linear_95_240)"/>
<path d="M7.625 12C7.95652 12 8.27446 11.8683 8.50888 11.6339C8.7433 11.3995 8.875 11.0815 8.875 10.75C8.875 10.4185 8.7433 10.1005 8.50888 9.86612C8.27446 9.6317 7.95652 9.5 7.625 9.5C7.29348 9.5 6.97554 9.6317 6.74112 9.86612C6.5067 10.1005 6.375 10.4185 6.375 10.75C6.375 11.0815 6.5067 11.3995 6.74112 11.6339C6.97554 11.8683 7.29348 12 7.625 12Z" fill="url(#paint1_linear_95_240)"/>
<path d="M11.687 12C12.0185 12 12.3365 11.8683 12.5709 11.6339C12.8053 11.3995 12.937 11.0815 12.937 10.75C12.937 10.4185 12.8053 10.1005 12.5709 9.86612C12.3365 9.6317 12.0185 9.5 11.687 9.5C11.3555 9.5 11.0375 9.6317 10.8031 9.86612C10.5687 10.1005 10.437 10.4185 10.437 10.75C10.437 11.0815 10.5687 11.3995 10.8031 11.6339C11.0375 11.8683 11.3555 12 11.687 12Z" fill="url(#paint2_linear_95_240)"/>
<path d="M15.75 12.001C16.0815 12.001 16.3995 11.8693 16.6339 11.6349C16.8683 11.4004 17 11.0825 17 10.751C17 10.4195 16.8683 10.1015 16.6339 9.86709C16.3995 9.63267 16.0815 9.50098 15.75 9.50098C15.4185 9.50098 15.1005 9.63267 14.8661 9.86709C14.6317 10.1015 14.5 10.4195 14.5 10.751C14.5 11.0825 14.6317 11.4004 14.8661 11.6349C15.1005 11.8693 15.4185 12.001 15.75 12.001Z" fill="url(#paint3_linear_95_240)"/>
<defs>
<linearGradient id="paint0_linear_95_240" x1="12" y1="2.62498" x2="12" y2="21.375" gradientUnits="userSpaceOnUse">
<stop stop-color="#1BC9FA"/>
<stop offset="1" stop-color="#1778F0"/>
</linearGradient>
<linearGradient id="paint1_linear_95_240" x1="12" y1="2.625" x2="12" y2="21.375" gradientUnits="userSpaceOnUse">
<stop stop-color="#1BC9FA"/>
<stop offset="1" stop-color="#1778F0"/>
</linearGradient>
<linearGradient id="paint2_linear_95_240" x1="12" y1="2.625" x2="12" y2="21.375" gradientUnits="userSpaceOnUse">
<stop stop-color="#1BC9FA"/>
<stop offset="1" stop-color="#1778F0"/>
</linearGradient>
<linearGradient id="paint3_linear_95_240" x1="12" y1="2.62498" x2="12" y2="21.375" gradientUnits="userSpaceOnUse">
<stop stop-color="#1BC9FA"/>
<stop offset="1" stop-color="#1778F0"/>
</linearGradient>
</defs>
</svg>
